<mxfile host="app.diagrams.net" modified="2024-02-16T18:55:14.868Z" agent="Mozilla/5.0 (X11; Ubuntu; Linux x86_64; rv:122.0) Gecko/20100101 Firefox/122.0" etag="7AHbTZT5IzxV0aS4-KyO" version="23.0.0" type="device">
  <diagram name="Page-1" id="TSnRwoNmWlexIYTid5XA">
    <mxGraphModel dx="1887" dy="930" grid="1" gridSize="10" guides="1" tooltips="1" connect="1" arrows="1" fold="1" page="1" pageScale="1" pageWidth="850" pageHeight="1100" math="0" shadow="0">
      <root>
        <mxCell id="0" />
        <mxCell id="1" parent="0" />
        <mxCell id="h-0rYBrRod4r_XxeJbKy-2" value="&lt;div&gt;User&lt;/div&gt;&lt;div&gt;- id&lt;/div&gt;&lt;div&gt;- &lt;br&gt;&lt;/div&gt;" style="rounded=0;whiteSpace=wrap;html=1;" parent="1" vertex="1">
          <mxGeometry x="40" y="270" width="200" height="90" as="geometry" />
        </mxCell>
        <mxCell id="h-0rYBrRod4r_XxeJbKy-3" value="&lt;div&gt;- ID&lt;/div&gt;&lt;div&gt;- Date&lt;/div&gt;&lt;div&gt;- Amount&lt;/div&gt;&lt;div&gt;- Recipient&lt;/div&gt;&lt;div&gt;- Currency&lt;br&gt;&lt;/div&gt;&lt;div&gt;- Account_amount_after&lt;/div&gt;&lt;div&gt;- Concept&lt;/div&gt;&lt;div&gt;&lt;br&gt;&lt;/div&gt;" style="rounded=0;whiteSpace=wrap;html=1;" parent="1" vertex="1">
          <mxGeometry x="310" y="380" width="230" height="180" as="geometry" />
        </mxCell>
        <mxCell id="h-0rYBrRod4r_XxeJbKy-4" value="" style="rounded=0;whiteSpace=wrap;html=1;" parent="1" vertex="1">
          <mxGeometry y="140" width="120" height="60" as="geometry" />
        </mxCell>
        <mxCell id="h-0rYBrRod4r_XxeJbKy-6" value="&lt;div&gt;Account&lt;/div&gt;" style="swimlane;whiteSpace=wrap;html=1;" parent="1" vertex="1">
          <mxGeometry x="325" y="60" width="200" height="200" as="geometry" />
        </mxCell>
        <mxCell id="h-0rYBrRod4r_XxeJbKy-1" value="&lt;div&gt;- ID&lt;/div&gt;&lt;div&gt;- Name&lt;/div&gt;&lt;div&gt;- IBAN&lt;/div&gt;&lt;div&gt;- Currency&lt;/div&gt;&lt;div&gt;- Amount&lt;br&gt;&lt;/div&gt;&lt;div&gt;&lt;br&gt;&lt;/div&gt;" style="rounded=0;whiteSpace=wrap;html=1;" parent="h-0rYBrRod4r_XxeJbKy-6" vertex="1">
          <mxGeometry y="20" width="200" height="180" as="geometry" />
        </mxCell>
        <mxCell id="h-0rYBrRod4r_XxeJbKy-15" value="&lt;div&gt;Bank&lt;/div&gt;" style="swimlane;whiteSpace=wrap;html=1;startSize=20;" parent="1" vertex="1">
          <mxGeometry x="740" y="70" width="200" height="200" as="geometry" />
        </mxCell>
        <mxCell id="h-0rYBrRod4r_XxeJbKy-18" value="&lt;div&gt;- ID&lt;/div&gt;&lt;div&gt;- nanme&lt;/div&gt;&lt;div&gt;-country&lt;/div&gt;&lt;div&gt;&lt;br&gt;&lt;/div&gt;" style="whiteSpace=wrap;html=1;aspect=fixed;" parent="h-0rYBrRod4r_XxeJbKy-15" vertex="1">
          <mxGeometry x="10" y="20" width="180" height="180" as="geometry" />
        </mxCell>
        <mxCell id="h-0rYBrRod4r_XxeJbKy-19" style="edgeStyle=orthogonalEdgeStyle;rounded=0;orthogonalLoop=1;jettySize=auto;html=1;exitX=1;exitY=1;exitDx=0;exitDy=0;exitPerimeter=0;entryX=0;entryY=0.5;entryDx=0;entryDy=0;" parent="1" target="h-0rYBrRod4r_XxeJbKy-15" edge="1">
          <mxGeometry relative="1" as="geometry">
            <mxPoint x="525" y="160" as="sourcePoint" />
            <mxPoint x="595" y="225" as="targetPoint" />
          </mxGeometry>
        </mxCell>
        <mxCell id="h-0rYBrRod4r_XxeJbKy-22" value="TRANSACTION&amp;nbsp;&amp;nbsp;&amp;nbsp;&amp;nbsp;&amp;nbsp;&amp;nbsp;&amp;nbsp;&amp;nbsp;&amp;nbsp;&amp;nbsp;&amp;nbsp;&amp;nbsp;&amp;nbsp;&amp;nbsp;&amp;nbsp;&amp;nbsp;&amp;nbsp; " style="swimlane;whiteSpace=wrap;html=1;startSize=20;" parent="1" vertex="1">
          <mxGeometry x="310" y="360" width="230" height="200" as="geometry" />
        </mxCell>
        <mxCell id="h-0rYBrRod4r_XxeJbKy-23" value="" style="shape=flexArrow;endArrow=classic;startArrow=classic;html=1;rounded=0;entryX=0.25;entryY=1;entryDx=0;entryDy=0;exitX=0.283;exitY=-0.005;exitDx=0;exitDy=0;exitPerimeter=0;" parent="1" edge="1" target="h-0rYBrRod4r_XxeJbKy-1" source="h-0rYBrRod4r_XxeJbKy-22">
          <mxGeometry width="100" height="100" relative="1" as="geometry">
            <mxPoint x="375" y="360" as="sourcePoint" />
            <mxPoint x="475" y="260" as="targetPoint" />
          </mxGeometry>
        </mxCell>
      </root>
    </mxGraphModel>
  </diagram>
</mxfile>
